<?xml version="1.0" encoding="UTF-8"?>
<svg version="1.1" xmlns="http://www.w3.org/2000/svg" width="40" height="40">
<path d="M0 0 C3.135 -0.165 6.27 -0.33 9.5 -0.5 C10.47130859 -0.57283203 11.44261719 -0.64566406 12.44335938 -0.72070312 C17.46431152 -0.84735041 20.70363545 -0.11438811 24.625 3.125 C29.64608885 8.85830003 28.87882234 15.27555627 28.5 22.5 C28.335 26.955 28.17 31.41 28 36 C18.76 36 9.52 36 0 36 C0 24.12 0 12.24 0 0 Z " fill="#FEFEFE" transform="translate(6,2)"/>
<path d="M0 0 C3.135 -0.165 6.27 -0.33 9.5 -0.5 C10.47130859 -0.57283203 11.44261719 -0.64566406 12.44335938 -0.72070312 C17.46431152 -0.84735041 20.70363545 -0.11438811 24.625 3.125 C29.64608885 8.85830003 28.87882234 15.27555627 28.5 22.5 C28.335 26.955 28.17 31.41 28 36 C18.76 36 9.52 36 0 36 C0 24.12 0 12.24 0 0 Z M1 1 C1 12.22 1 23.44 1 35 C9.58 35 18.16 35 27 35 C27 26.75 27 18.5 27 10 C24.03 10 21.06 10 18 10 C18 7.03 18 4.06 18 1 C12.39 1 6.78 1 1 1 Z " fill="#C74444" transform="translate(6,2)"/>
<path d="M0 0 C0.99 0.33 1.98 0.66 3 1 C2.979375 1.94875 2.95875 2.8975 2.9375 3.875 C2.77448174 6.90666283 2.77448174 6.90666283 4 9 C5.97888961 9.72693904 7.97954558 10.39816251 10 11 C10 11.66 10 12.32 10 13 C9.22914062 12.96519531 8.45828125 12.93039063 7.6640625 12.89453125 C6.15972656 12.85392578 6.15972656 12.85392578 4.625 12.8125 C3.62726562 12.77769531 2.62953125 12.74289063 1.6015625 12.70703125 C0.31378906 12.85205078 0.31378906 12.85205078 -1 13 C-1.99 14.485 -1.99 14.485 -3 16 C-3.99 16 -4.98 16 -6 16 C-5.02690252 13.82924408 -4.2724539 12.2390922 -2.46875 10.65625 C-0.5799139 8.52628589 -0.51600966 7.12093336 -0.3125 4.3125 C-0.24675781 3.50425781 -0.18101563 2.69601563 -0.11328125 1.86328125 C-0.07589844 1.24839844 -0.03851562 0.63351562 0 0 Z " fill="#DF9696" transform="translate(18,14)"/>
<path d="M0 0 C1.16959987 0.97566112 2.33561177 1.955625 3.5 2.9375 C4.1496875 3.48277344 4.799375 4.02804688 5.46875 4.58984375 C5.9740625 5.05519531 6.479375 5.52054688 7 6 C7 6.33 7 6.66 7 7 C4.69 7 2.38 7 0 7 C0 4.69 0 2.38 0 0 Z " fill="#FDD6D6" transform="translate(25,4)"/>
<path d="M0 0 C0.99 0.33 1.98 0.66 3 1 C3 3.64 3 6.28 3 9 C2.01 9 1.02 9 0 9 C0 6.03 0 3.06 0 0 Z " fill="#D67878" transform="translate(18,14)"/>
<path d="M0 0 C0.33 0.66 0.66 1.32 1 2 C1.66 2.33 2.32 2.66 3 3 C2.01 3.33 1.02 3.66 0 4 C-0.99 5.485 -0.99 5.485 -2 7 C-2.99 7 -3.98 7 -5 7 C-3.70700306 4.11562221 -2.34058637 2.12780579 0 0 Z " fill="#D46F6F" transform="translate(17,23)"/>
</svg>
