<?xml version="1.0" encoding="UTF-8"?>
<svg version="1.1" xmlns="http://www.w3.org/2000/svg" width="48" height="48">
<path d="M0 0 C2.375 0.4375 2.375 0.4375 5.375 2.4375 C6.035 2.25445312 6.695 2.07140625 7.375 1.8828125 C8.365 1.66238281 8.365 1.66238281 9.375 1.4375 C10.9375 2.6171875 10.9375 2.6171875 12.375 4.3125 C14.63182668 6.94955292 16.00136936 7.71099176 19.375 8.4375 C19.11324916 12.77943964 18.84659385 17.12104219 18.57543945 21.46240234 C18.48392889 22.93855678 18.39374632 24.41479419 18.30493164 25.89111328 C18.17685498 28.01618413 18.04396617 30.14090839 17.91015625 32.265625 C17.831604 33.5434082 17.75305176 34.82119141 17.67211914 36.13769531 C17.375 39.4375 17.375 39.4375 16.375 43.4375 C7.795 43.4375 -0.785 43.4375 -9.625 43.4375 C-10.5850028 39.5974888 -10.91782146 36.20760432 -11.16015625 32.265625 C-11.20313339 31.5832074 -11.24611053 30.90078979 -11.29039001 30.19769287 C-11.42624345 28.0278284 -11.55694244 25.85768891 -11.6875 23.6875 C-11.77895645 22.21221844 -11.87074956 20.73695771 -11.96289062 19.26171875 C-12.18749426 15.65387893 -12.40747766 12.04577447 -12.625 8.4375 C-11.8515625 7.99792969 -11.078125 7.55835938 -10.28125 7.10546875 C-7.4629712 5.49493066 -7.4629712 5.49493066 -5.125 2.75 C-2.625 0.4375 -2.625 0.4375 0 0 Z " fill="#3A87C6" transform="translate(20.625,-0.4375)"/>
<path d="M0 0 C2.625 0.375 2.625 0.375 5 1 C5.33 1.99 5.66 2.98 6 4 C6.99 4.33 7.98 4.66 9 5 C8.67 5.99 8.34 6.98 8 8 C8.474375 8.4125 8.94875 8.825 9.4375 9.25 C11.18820141 11.21078558 11.7478796 12.39475592 12 15 C11.34 15.66 10.68 16.32 10 17 C8.68 17 7.36 17 6 17 C6 17.66 6 18.32 6 19 C5.34 19 4.68 19 4 19 C4 18.34 4 17.68 4 17 C0.7 17 -2.6 17 -6 17 C-8.08954032 12.82091936 -8.16552619 12.19589427 -7 8 C-5.68 7.67 -4.36 7.34 -3 7 C-2.814375 5.824375 -2.814375 5.824375 -2.625 4.625 C-2 2 -2 2 0 0 Z " fill="#4088C4" transform="translate(22,17)"/>
<path d="M0 0 C2.625 0.1875 2.625 0.1875 5.625 2.1875 C6.945 1.8575 8.265 1.5275 9.625 1.1875 C11.605 3.4975 13.585 5.8075 15.625 8.1875 C7.375 8.1875 -0.875 8.1875 -9.375 8.1875 C-2.52822581 0.19959677 -2.52822581 0.19959677 0 0 Z " fill="#F9C544" transform="translate(20.375,-0.1875)"/>
<path d="M0 0 C10.56 0 21.12 0 32 0 C32 0.99 32 1.98 32 3 C21.44 3 10.88 3 0 3 C0 2.01 0 1.02 0 0 Z " fill="#75C9E6" transform="translate(8,8)"/>
<path d="M0 0 C2.625 0.375 2.625 0.375 5 1 C5.33 1.99 5.66 2.98 6 4 C6.99 4.33 7.98 4.66 9 5 C8.67 5.99 8.34 6.98 8 8 C6.68 8 5.36 8 4 8 C3.67 6.02 3.34 4.04 3 2 C2.34 2 1.68 2 1 2 C0.34 3.65 -0.32 5.3 -1 7 C-1.66 7 -2.32 7 -3 7 C-2.25 2.25 -2.25 2.25 0 0 Z " fill="#EBF2F8" transform="translate(22,17)"/>
<path d="M0 0 C3.83953399 1.27984466 5.65316744 3.81501296 8 7 C1.539801 7.36567164 1.539801 7.36567164 -0.9375 5.6875 C-2 4 -2 4 -2 1 C-1.34 0.67 -0.68 0.34 0 0 Z " fill="#D0910A" transform="translate(28,1)"/>
<path d="M0 0 C1.32 0 2.64 0 4 0 C4.33 1.32 4.66 2.64 5 4 C4.01 4 3.02 4 2 4 C2 4.99 2 5.98 2 7 C3.98 7 5.96 7 8 7 C8 7.66 8 8.32 8 9 C5.69 9 3.38 9 1 9 C-0.61949011 6.42786866 -1.04408751 5.32330841 -0.625 2.25 C-0.41875 1.5075 -0.2125 0.765 0 0 Z " fill="#EFF4F8" transform="translate(15,25)"/>
<path d="M0 0 C0.66 0 1.32 0 2 0 C2.66 1.98 3.32 3.96 4 6 C3.34 6.66 2.68 7.32 2 8 C0.68 8 -0.64 8 -2 8 C-2 8.66 -2 9.32 -2 10 C-2.66 10 -3.32 10 -4 10 C-5.125 6.25 -5.125 6.25 -4 4 C-3.34 4 -2.68 4 -2 4 C-2 4.66 -2 5.32 -2 6 C-1.01 6 -0.02 6 1 6 C0.34 4.35 -0.32 2.7 -1 1 C-0.67 0.67 -0.34 0.34 0 0 Z " fill="#E8EFF6" transform="translate(30,26)"/>
</svg>
